<svg width="259" height="144" viewBox="0 0 259 144" fill="none" xmlns="http://www.w3.org/2000/svg">
<mask id="mask0_115_109" style="mask-type:alpha" maskUnits="userSpaceOnUse" x="55" y="10" width="59" height="59">
<path d="M90.3801 12.801L91.3751 12.7015V12.7015L90.3801 12.801ZM91.0163 19.1628L92.0113 19.0633L91.0163 19.1628ZM91.8141 21.8421L91.4314 22.7659L91.8141 21.8421ZM94.2728 20.5117L93.6396 19.7377H93.6396L94.2728 20.5117ZM99.2211 16.4631L98.5878 15.6892L99.2211 16.4631ZM100.605 15.6652L100.555 16.664L100.555 16.664L100.605 15.6652ZM101.902 16.5968L102.609 15.8897L101.902 16.5968ZM107.403 22.0981L108.11 21.391L107.403 22.0981ZM108.335 23.3954L109.333 23.3455L109.333 23.3455L108.335 23.3954ZM107.537 24.7788L108.311 25.4121L107.537 24.7788ZM103.488 29.7272L102.714 29.0939V29.0939L103.488 29.7272ZM102.158 32.1859L101.234 32.5685L101.234 32.5685L102.158 32.1859ZM104.837 32.9837L104.738 33.9787L104.837 32.9837ZM111.199 33.6199L111.299 32.6249H111.299L111.199 33.6199ZM112.741 34.034L112 34.705L112 34.705L112.741 34.034ZM112.741 44.966L112 44.295L112 44.295L112.741 44.966ZM111.199 45.3801L111.299 46.3751H111.299L111.199 45.3801ZM104.838 46.0162L104.739 45.0211L104.838 46.0162ZM102.159 46.814L101.235 46.4313L101.235 46.4314L102.159 46.814ZM103.489 49.2727L104.263 48.6395V48.6395L103.489 49.2727ZM107.537 54.2199L106.763 54.8531V54.8532L107.537 54.2199ZM108.335 55.6034L109.334 55.6532L109.334 55.6532L108.335 55.6034ZM107.403 56.9006L106.696 56.1935L107.403 56.9006ZM101.902 62.4019L102.609 63.109L101.902 62.4019ZM100.605 63.3335L100.654 64.3323H100.654L100.605 63.3335ZM99.2212 62.5356L98.588 63.3096L99.2212 62.5356ZM94.273 58.4871L94.9062 57.7131L94.273 58.4871ZM91.0164 59.836L92.0114 59.9355L91.0164 59.836ZM90.3801 66.199L91.3751 66.2985V66.2985L90.3801 66.199ZM89.966 67.7415L89.295 67L89.295 67L89.966 67.7415ZM79.034 67.7415L79.705 67L79.705 67L79.034 67.7415ZM78.6199 66.199L77.6249 66.2985V66.2985L78.6199 66.199ZM77.9837 59.8371L78.9787 59.7376L77.9837 59.8371ZM77.1859 57.1578L77.5686 56.2339L77.5685 56.2339L77.1859 57.1578ZM74.7272 58.4882L75.3604 59.2621L74.7272 58.4882ZM69.7787 62.5369L69.1455 61.763L69.7787 62.5369ZM68.3952 63.3348L68.3454 64.3335L68.3454 64.3336L68.3952 63.3348ZM67.098 62.4032L67.8051 61.6961L67.098 62.4032ZM61.5967 56.9019L62.3038 56.1948H62.3038L61.5967 56.9019ZM60.6651 55.6047L59.6663 55.6545L60.6651 55.6047ZM61.463 54.2212L60.689 53.588H60.689L61.463 54.2212ZM65.5117 49.2728L64.7377 48.6396V48.6396L65.5117 49.2728ZM66.842 46.8141L65.9182 47.1968L66.842 46.8141ZM64.1627 46.0163L64.0632 47.0113L64.1627 46.0163ZM57.801 45.3801L57.7015 46.3751H57.7015L57.801 45.3801ZM56.2585 34.034L57 34.705H57L56.2585 34.034ZM57.801 33.6199V32.6199H57.7511L57.7015 32.6249L57.801 33.6199ZM57.801 33.6199V34.6199H57.8509L57.9005 34.6149L57.801 33.6199ZM64.1638 32.9836L64.2633 33.9787H64.2633L64.1638 32.9836ZM66.8431 32.1858L67.767 32.5685V32.5685L66.8431 32.1858ZM65.5127 29.7271L64.7388 30.3603L65.5127 29.7271ZM61.4631 24.7775L62.2371 24.1443L61.4631 24.7775ZM60.6652 23.3941L59.6665 23.3442V23.3442L60.6652 23.3941ZM61.5968 22.0968L62.3039 22.804L61.5968 22.0968ZM68.3954 15.6639L68.3455 14.6652H68.3455L68.3954 15.6639ZM69.7788 16.4618L70.4121 15.6879V15.6879L69.7788 16.4618ZM74.7273 20.5106L74.094 21.2845L74.7273 20.5106ZM77.186 21.8409L76.8033 20.9171H76.8033L77.186 21.8409ZM77.9838 19.1616L78.9789 19.2612V19.2612L77.9838 19.1616ZM78.6199 12.801L79.6149 12.9005L79.6199 12.8509V12.801H78.6199ZM78.6199 12.801L77.6249 12.7015L77.6199 12.7511V12.801H78.6199ZM79.034 11.2585L79.705 12V12L79.034 11.2585ZM91.3751 12.7015C91.335 12.3001 91.2973 11.9035 91.2223 11.5799C91.1408 11.2284 90.9895 10.8361 90.637 10.5171L89.295 12C89.2283 11.9396 89.2412 11.8905 89.2739 12.0316C89.3131 12.2006 89.3396 12.4459 89.3851 12.9005L91.3751 12.7015ZM92.0113 19.0633L91.3751 12.7015L89.3851 12.9005L90.0212 19.2623L92.0113 19.0633ZM92.1968 20.9182C92.3707 20.9902 92.3261 21.1318 92.2389 20.7851C92.1514 20.4371 92.0964 19.9138 92.0113 19.0633L90.0212 19.2623C90.0995 20.0452 90.1671 20.7472 90.2994 21.2731C90.432 21.8004 90.7047 22.4649 91.4314 22.7659L92.1968 20.9182ZM93.6396 19.7377C92.978 20.279 92.5691 20.6101 92.2611 20.7943C91.9543 20.9778 92.0229 20.8462 92.1968 20.9182L91.4314 22.7659C92.1581 23.0669 92.8208 22.7899 93.2875 22.5108C93.753 22.2325 94.2971 21.7839 94.9061 21.2856L93.6396 19.7377ZM98.5878 15.6892L93.6396 19.7377L94.9061 21.2856L99.8543 17.2371L98.5878 15.6892ZM100.654 14.6665C100.18 14.6428 99.7952 14.8133 99.489 15.0042C99.2071 15.1799 98.9 15.4337 98.5878 15.6892L99.8543 17.2371C100.208 16.9478 100.4 16.793 100.547 16.7013C100.67 16.6246 100.645 16.6685 100.555 16.664L100.654 14.6665ZM102.609 15.8897C102.324 15.6045 102.043 15.3214 101.78 15.1184C101.495 14.898 101.129 14.6902 100.654 14.6665L100.555 16.664C100.465 16.6595 100.444 16.6133 100.558 16.7018C100.696 16.8078 100.872 16.9809 101.195 17.3039L102.609 15.8897ZM108.11 21.391L102.609 15.8897L101.195 17.3039L106.696 22.8052L108.11 21.391ZM109.333 23.3455C109.31 22.8708 109.102 22.5052 108.881 22.2196C108.679 21.9566 108.395 21.6763 108.11 21.391L106.696 22.8052C107.019 23.1283 107.192 23.3041 107.298 23.4414C107.387 23.5562 107.34 23.5351 107.336 23.4452L109.333 23.3455ZM108.311 25.4121C108.566 25.0999 108.82 24.7928 108.996 24.5109C109.187 24.2047 109.357 23.8203 109.333 23.3455L107.336 23.4452C107.331 23.3552 107.375 23.3297 107.299 23.4526C107.207 23.5998 107.052 23.792 106.763 24.1456L108.311 25.4121ZM104.262 30.3604L108.311 25.4121L106.763 24.1456L102.714 29.0939L104.262 30.3604ZM103.082 31.8032C103.154 31.9771 103.022 32.0457 103.206 31.7389C103.39 31.4308 103.721 31.022 104.262 30.3604L102.714 29.0939C102.216 29.7029 101.767 30.247 101.489 30.7125C101.21 31.1792 100.933 31.8418 101.234 32.5685L103.082 31.8032ZM104.937 31.9887C104.086 31.9036 103.563 31.8486 103.215 31.761C102.868 31.6738 103.01 31.6293 103.082 31.8032L101.234 32.5685C101.535 33.2952 102.199 33.5679 102.727 33.7006C103.253 33.8329 103.955 33.9004 104.738 33.9787L104.937 31.9887ZM111.299 32.6249L104.937 31.9887L104.738 33.9787L111.1 34.6149L111.299 32.6249ZM113.483 33.363C113.164 33.0105 112.772 32.8592 112.42 32.7778C112.097 32.7027 111.7 32.665 111.299 32.6249L111.1 34.6149C111.554 34.6604 111.799 34.6869 111.968 34.7261C112.11 34.7588 112.06 34.7717 112 34.705L113.483 33.363ZM114 35.61C114 35.2066 114.002 34.8082 113.959 34.4787C113.913 34.1209 113.802 33.7154 113.483 33.363L112 34.705C111.94 34.6382 111.957 34.5906 111.976 34.7344C111.998 34.9064 112 35.1531 112 35.61H114ZM114 43.39V35.61H112V43.39H114ZM113.483 45.637C113.802 45.2846 113.913 44.8791 113.959 44.5213C114.002 44.1918 114 43.7934 114 43.39H112C112 43.8469 111.998 44.0936 111.976 44.2656C111.957 44.4094 111.94 44.3618 112 44.295L113.483 45.637ZM111.299 46.3751C111.7 46.335 112.097 46.2973 112.42 46.2223C112.772 46.1408 113.164 45.9895 113.483 45.637L112 44.295C112.06 44.2283 112.11 44.2412 111.968 44.2739C111.799 44.3131 111.554 44.3396 111.1 44.3851L111.299 46.3751ZM104.938 47.0112L111.299 46.3751L111.1 44.3851L104.739 45.0211L104.938 47.0112ZM103.083 47.1967C103.011 47.3706 102.869 47.3261 103.216 47.2388C103.564 47.1513 104.087 47.0963 104.938 47.0112L104.739 45.0211C103.956 45.0994 103.254 45.167 102.728 45.2993C102.2 45.4319 101.536 45.7046 101.235 46.4313L103.083 47.1967ZM104.263 48.6395C103.722 47.9779 103.391 47.569 103.207 47.261C103.023 46.9542 103.155 47.0228 103.083 47.1967L101.235 46.4314C100.934 47.1581 101.211 47.8207 101.49 48.2874C101.768 48.7529 102.217 49.297 102.715 49.906L104.263 48.6395ZM108.311 53.5867L104.263 48.6395L102.715 49.906L106.763 54.8531L108.311 53.5867ZM109.334 55.6532C109.357 55.1784 109.187 54.794 108.996 54.4879C108.82 54.206 108.566 53.8989 108.311 53.5867L106.763 54.8532C107.052 55.2067 107.207 55.3989 107.299 55.5461C107.375 55.6691 107.332 55.6435 107.336 55.5536L109.334 55.6532ZM108.11 57.6077C108.396 57.3225 108.679 57.0421 108.882 56.7791C109.102 56.4935 109.31 56.128 109.334 55.6532L107.336 55.5536C107.341 55.4636 107.387 55.4426 107.298 55.5573C107.192 55.6946 107.019 55.8705 106.696 56.1935L108.11 57.6077ZM102.609 63.109L108.11 57.6077L106.696 56.1935L101.195 61.6948L102.609 63.109ZM100.654 64.3323C101.129 64.3086 101.495 64.1007 101.78 63.8803C102.043 63.6773 102.324 63.3943 102.609 63.109L101.195 61.6948C100.872 62.0179 100.696 62.1909 100.559 62.2969C100.444 62.3855 100.465 62.3392 100.555 62.3347L100.654 64.3323ZM98.588 63.3096C98.9002 63.565 99.2073 63.8188 99.4892 63.9946C99.7953 64.1855 100.18 64.3559 100.654 64.3323L100.555 62.3347C100.645 62.3303 100.67 62.3742 100.547 62.2975C100.4 62.2057 100.208 62.051 99.8544 61.7617L98.588 63.3096ZM93.6397 59.261L98.588 63.3096L99.8544 61.7617L94.9062 57.7131L93.6397 59.261ZM92.1969 58.0806C92.023 58.1526 91.9544 58.021 92.2612 58.2044C92.5693 58.3886 92.9781 58.7197 93.6397 59.261L94.9062 57.7131C94.2972 57.2148 93.7531 56.7662 93.2877 56.4879C92.821 56.2088 92.1583 55.9318 91.4316 56.2328L92.1969 58.0806ZM92.0114 59.9355C92.0965 59.0849 92.1515 58.5617 92.2391 58.2136C92.3263 57.8669 92.3708 58.0085 92.1969 58.0806L91.4316 56.2328C90.7049 56.5338 90.4322 57.1983 90.2995 57.7256C90.1672 58.2516 90.0997 58.9535 90.0214 59.7365L92.0114 59.9355ZM91.3751 66.2985L92.0114 59.9355L90.0214 59.7365L89.3851 66.0995L91.3751 66.2985ZM90.637 68.4829C90.9895 68.1639 91.1408 67.7716 91.2223 67.4201C91.2973 67.0965 91.335 66.6999 91.3751 66.2985L89.3851 66.0995C89.3396 66.5541 89.3131 66.7994 89.2739 66.9684C89.2412 67.1095 89.2283 67.0604 89.295 67L90.637 68.4829ZM88.39 69C88.7934 69 89.1918 69.0019 89.5213 68.9595C89.8791 68.9134 90.2846 68.8019 90.637 68.4829L89.295 67C89.3618 66.9396 89.4094 66.9574 89.2656 66.9759C89.0936 66.9981 88.8469 67 88.39 67V69ZM80.61 69H88.39V67H80.61V69ZM78.363 68.4829C78.7154 68.8019 79.1209 68.9134 79.4787 68.9595C79.8082 69.0019 80.2066 69 80.61 69V67C80.1531 67 79.9064 66.9981 79.7344 66.9759C79.5906 66.9574 79.6382 66.9396 79.705 67L78.363 68.4829ZM77.6249 66.2985C77.665 66.6999 77.7027 67.0965 77.7778 67.4201C77.8592 67.7716 78.0105 68.1639 78.363 68.4829L79.705 67C79.7717 67.0604 79.7588 67.1095 79.7261 66.9684C79.6869 66.7994 79.6604 66.5541 79.6149 66.0995L77.6249 66.2985ZM76.9887 59.9366L77.6249 66.2985L79.6149 66.0995L78.9787 59.7376L76.9887 59.9366ZM76.8032 58.0817C76.6293 58.0096 76.6738 57.868 76.7611 58.2147C76.8486 58.5628 76.9036 59.086 76.9887 59.9366L78.9787 59.7376C78.9004 58.9546 78.8329 58.2527 78.7006 57.7268C78.5679 57.1994 78.2952 56.5349 77.5686 56.2339L76.8032 58.0817ZM75.3604 59.2621C76.022 58.7208 76.4308 58.3897 76.7389 58.2055C77.0457 58.0221 76.9771 58.1537 76.8032 58.0817L77.5685 56.2339C76.8418 55.9329 76.1792 56.2099 75.7125 56.489C75.247 56.7674 74.7029 57.2159 74.0939 57.7142L75.3604 59.2621ZM70.4119 63.3109L75.3604 59.2621L74.0939 57.7142L69.1455 61.763L70.4119 63.3109ZM68.3454 64.3336C68.8202 64.3572 69.2046 64.1868 69.5107 63.9959C69.7926 63.8201 70.0997 63.5663 70.4119 63.3109L69.1455 61.763C68.7919 62.0522 68.5997 62.207 68.4525 62.2988C68.3295 62.3754 68.3551 62.3316 68.445 62.336L68.3454 64.3336ZM66.3909 63.1103C66.6761 63.3955 66.9565 63.6786 67.2195 63.8816C67.5051 64.102 67.8707 64.3099 68.3454 64.3335L68.445 62.336C68.535 62.3405 68.556 62.3867 68.4413 62.2982C68.304 62.1922 68.1281 62.0191 67.8051 61.6961L66.3909 63.1103ZM60.8896 57.609L66.3909 63.1103L67.8051 61.6961L62.3038 56.1948L60.8896 57.609ZM59.6663 55.6545C59.69 56.1292 59.8979 56.4948 60.1183 56.7804C60.3213 57.0434 60.6044 57.3238 60.8896 57.609L62.3038 56.1948C61.9808 55.8718 61.8077 55.6959 61.7017 55.5586C61.6132 55.4439 61.6594 55.4649 61.6639 55.5549L59.6663 55.6545ZM60.689 53.588C60.4336 53.9002 60.1798 54.2073 60.004 54.4892C59.8131 54.7953 59.6427 55.1797 59.6663 55.6545L61.6639 55.5549C61.6684 55.6448 61.6245 55.6704 61.7011 55.5474C61.7929 55.4002 61.9477 55.208 62.2369 54.8544L60.689 53.588ZM64.7377 48.6396L60.689 53.588L62.2369 54.8544L66.2856 49.9061L64.7377 48.6396ZM65.9182 47.1968C65.8461 47.0229 65.9778 46.9543 65.7943 47.2611C65.6101 47.5691 65.279 47.978 64.7377 48.6396L66.2856 49.9061C66.7839 49.2971 67.2325 48.753 67.5108 48.2875C67.7899 47.8208 68.0669 47.1581 67.7659 46.4314L65.9182 47.1968ZM64.0632 47.0113C64.9138 47.0964 65.437 47.1514 65.7851 47.2389C66.1318 47.3261 65.9902 47.3707 65.9182 47.1968L67.7659 46.4314C67.4649 45.7047 66.8004 45.432 66.2731 45.2994C65.7471 45.1671 65.0452 45.0995 64.2622 45.0212L64.0632 47.0113ZM57.7015 46.3751L64.0632 47.0113L64.2622 45.0212L57.9005 44.3851L57.7015 46.3751ZM55.5171 45.637C55.8361 45.9895 56.2284 46.1408 56.5799 46.2223C56.9035 46.2973 57.3001 46.335 57.7015 46.3751L57.9005 44.3851C57.4459 44.3396 57.2006 44.3131 57.0316 44.2739C56.8905 44.2412 56.9396 44.2283 57 44.295L55.5171 45.637ZM55 43.39C55 43.7934 54.9981 44.1918 55.0405 44.5213C55.0866 44.8791 55.1981 45.2846 55.5171 45.637L57 44.295C57.0604 44.3618 57.0426 44.4094 57.0241 44.2656C57.0019 44.0936 57 43.8469 57 43.39H55ZM55 35.61V43.39H57V35.61H55ZM55.5171 33.363C55.1981 33.7154 55.0866 34.1209 55.0405 34.4787C54.9981 34.8082 55 35.2066 55 35.61H57C57 35.1531 57.0019 34.9064 57.0241 34.7344C57.0426 34.5906 57.0604 34.6382 57 34.705L55.5171 33.363ZM57.7015 32.6249C57.3001 32.665 56.9035 32.7027 56.5799 32.7778C56.2284 32.8592 55.8361 33.0105 55.5171 33.363L57 34.705C56.9396 34.7717 56.8905 34.7588 57.0316 34.7261C57.2006 34.6869 57.4459 34.6604 57.9005 34.6149L57.7015 32.6249ZM57.801 32.6199H57.801V34.6199H57.801V32.6199ZM64.0643 31.9886L57.7015 32.6249L57.9005 34.6149L64.2633 33.9787L64.0643 31.9886ZM65.9192 31.8031C65.9913 31.6292 66.1329 31.6737 65.7862 31.761C65.4381 31.8485 64.9149 31.9035 64.0643 31.9886L64.2633 33.9787C65.0463 33.9004 65.7482 33.8328 66.2741 33.7005C66.8015 33.5679 67.466 33.2952 67.767 32.5685L65.9192 31.8031ZM64.7388 30.3603C65.2801 31.0219 65.6112 31.4308 65.7954 31.7388C65.9788 32.0456 65.8472 31.977 65.9192 31.8031L67.767 32.5685C68.068 31.8418 67.791 31.1791 67.5119 30.7124C67.2336 30.2469 66.785 29.7028 66.2867 29.0938L64.7388 30.3603ZM60.6891 25.4108L64.7388 30.3603L66.2867 29.0938L62.2371 24.1443L60.6891 25.4108ZM59.6665 23.3442C59.6428 23.819 59.8133 24.2034 60.0042 24.5096C60.1799 24.7915 60.4337 25.0986 60.6891 25.4108L62.2371 24.1443C61.9478 23.7907 61.793 23.5985 61.7013 23.4513C61.6246 23.3284 61.6685 23.354 61.664 23.4439L59.6665 23.3442ZM60.8897 21.3897C60.6045 21.675 60.3214 21.9553 60.1184 22.2183C59.898 22.5039 59.6902 22.8695 59.6665 23.3442L61.664 23.4439C61.6595 23.5338 61.6133 23.5549 61.7018 23.4402C61.8078 23.3028 61.9809 23.127 62.3039 22.804L60.8897 21.3897ZM66.391 15.8884L60.8897 21.3897L62.3039 22.804L67.8052 17.3026L66.391 15.8884ZM68.3455 14.6652C67.8708 14.6889 67.5052 14.8967 67.2196 15.1171C66.9566 15.3201 66.6763 15.6032 66.391 15.8884L67.8052 17.3026C68.1283 16.9796 68.3041 16.8065 68.4414 16.7005C68.5562 16.612 68.5351 16.6582 68.4452 16.6627L68.3455 14.6652ZM70.4121 15.6879C70.0999 15.4324 69.7928 15.1786 69.5109 15.0029C69.2047 14.812 68.8203 14.6415 68.3455 14.6652L68.4452 16.6627C68.3552 16.6672 68.3297 16.6233 68.4526 16.7C68.5998 16.7917 68.792 16.9465 69.1456 17.2358L70.4121 15.6879ZM75.3605 19.7366L70.4121 15.6879L69.1456 17.2358L74.094 21.2845L75.3605 19.7366ZM76.8033 20.9171C76.9772 20.845 77.0458 20.9767 76.739 20.7932C76.431 20.609 76.0221 20.2779 75.3605 19.7366L74.094 21.2845C74.7031 21.7828 75.2471 22.2314 75.7126 22.5097C76.1793 22.7888 76.842 23.0658 77.5687 22.7648L76.8033 20.9171ZM76.9888 19.0621C76.9037 19.9127 76.8487 20.4359 76.7612 20.784C76.674 21.1307 76.6294 20.9891 76.8033 20.9171L77.5687 22.7648C78.2954 22.4638 78.5681 21.7993 78.7007 21.272C78.8331 20.746 78.9006 20.0441 78.9789 19.2612L76.9888 19.0621ZM77.6249 12.7015L76.9888 19.0621L78.9789 19.2612L79.6149 12.9005L77.6249 12.7015ZM77.6199 12.801V12.801H79.6199V12.801H77.6199ZM78.363 10.5171C78.0105 10.8361 77.8592 11.2284 77.7778 11.5799C77.7027 11.9035 77.665 12.3001 77.6249 12.7015L79.6149 12.9005C79.6604 12.4459 79.6869 12.2006 79.7261 12.0316C79.7588 11.8905 79.7717 11.9396 79.705 12L78.363 10.5171ZM80.61 10C80.2066 10 79.8082 9.99806 79.4787 10.0405C79.1209 10.0866 78.7154 10.1981 78.363 10.5171L79.705 12C79.6382 12.0604 79.5906 12.0426 79.7344 12.0241C79.9064 12.0019 80.1531 12 80.61 12V10ZM88.39 10H80.61V12H88.39V10ZM90.637 10.5171C90.2846 10.1981 89.8791 10.0866 89.5213 10.0405C89.1918 9.99806 88.7934 10 88.39 10V12C88.8469 12 89.0936 12.0019 89.2656 12.0241C89.4094 12.0426 89.3618 12.0604 89.295 12L90.637 10.5171ZM94.9 39.5C94.9 45.2438 90.2438 49.9 84.5 49.9V51.9C91.3483 51.9 96.9 46.3483 96.9 39.5H94.9ZM84.5 29.1C90.2438 29.1 94.9 33.7562 94.9 39.5H96.9C96.9 32.6517 91.3483 27.1 84.5 27.1V29.1ZM74.1 39.5C74.1 33.7562 78.7562 29.1 84.5 29.1V27.1C77.6517 27.1 72.1 32.6517 72.1 39.5H74.1ZM84.5 49.9C78.7562 49.9 74.1 45.2438 74.1 39.5H72.1C72.1 46.3483 77.6517 51.9 84.5 51.9V49.9Z" fill="white"/>
</mask>
<g mask="url(#mask0_115_109)">
<rect x="85" y="8" width="46" height="63" fill="white"/>
</g>
<path d="M4.04545 62V15.4545H35.4091V23.5682H13.8864V34.6591H33.7955V42.7727H13.8864V53.8864H35.5V62H4.04545ZM82.1648 15.4545V62H73.6648L53.4148 32.7045H53.0739V62H43.233V15.4545H51.8693L71.9602 44.7273H72.3693V15.4545H82.1648Z" fill="url(#paint0_linear_115_109)"/>
<path d="M21.9716 107.131C21.8352 105.756 21.25 104.687 20.2159 103.926C19.1818 103.165 17.7784 102.784 16.0057 102.784C14.8011 102.784 13.7841 102.955 12.9545 103.295C12.125 103.625 11.4886 104.085 11.0455 104.676C10.6136 105.267 10.3977 105.938 10.3977 106.688C10.375 107.312 10.5057 107.858 10.7898 108.324C11.0852 108.79 11.4886 109.193 12 109.534C12.5114 109.864 13.1023 110.153 13.7727 110.403C14.4432 110.642 15.1591 110.847 15.9205 111.017L19.0568 111.767C20.5795 112.108 21.9773 112.562 23.25 113.131C24.5227 113.699 25.625 114.398 26.5568 115.227C27.4886 116.057 28.2102 117.034 28.7216 118.159C29.2443 119.284 29.5114 120.574 29.5227 122.028C29.5114 124.165 28.9659 126.017 27.8864 127.585C26.8182 129.142 25.2727 130.352 23.25 131.216C21.2386 132.068 18.8125 132.494 15.9716 132.494C13.1534 132.494 10.6989 132.062 8.60795 131.199C6.52841 130.335 4.90341 129.057 3.73295 127.364C2.57386 125.659 1.96591 123.551 1.90909 121.04H9.05114C9.13068 122.21 9.46591 123.187 10.0568 123.972C10.6591 124.744 11.4602 125.33 12.4602 125.727C13.4716 126.114 14.6136 126.307 15.8864 126.307C17.1364 126.307 18.2216 126.125 19.142 125.761C20.0739 125.398 20.7955 124.892 21.3068 124.244C21.8182 123.597 22.0739 122.852 22.0739 122.011C22.0739 121.227 21.8409 120.568 21.375 120.034C20.9205 119.5 20.25 119.045 19.3636 118.67C18.4886 118.295 17.4148 117.955 16.142 117.648L12.3409 116.693C9.39773 115.977 7.07386 114.858 5.36932 113.335C3.66477 111.812 2.81818 109.761 2.82955 107.182C2.81818 105.068 3.38068 103.222 4.51705 101.642C5.66477 100.062 7.23864 98.8295 9.23864 97.9432C11.2386 97.0568 13.5114 96.6136 16.0568 96.6136C18.6477 96.6136 20.9091 97.0568 22.8409 97.9432C24.7841 98.8295 26.2955 100.062 27.375 101.642C28.4545 103.222 29.0114 105.051 29.0455 107.131H21.9716Z" fill="url(#paint1_linear_115_109)"/>
<path d="M33.7472 132V111.273H39.2259V114.93H39.4688C39.9006 113.715 40.6203 112.757 41.6278 112.055C42.6354 111.354 43.8409 111.003 45.2443 111.003C46.6657 111.003 47.8757 111.358 48.8743 112.069C49.8729 112.771 50.5386 113.724 50.8715 114.93H51.0874C51.5102 113.742 52.2749 112.793 53.3814 112.082C54.4969 111.363 55.8149 111.003 57.3352 111.003C59.2694 111.003 60.8393 111.619 62.0447 112.852C63.2592 114.075 63.8665 115.811 63.8665 118.06V132H58.1314V119.194C58.1314 118.042 57.8255 117.179 57.2138 116.603C56.602 116.027 55.8374 115.739 54.9197 115.739C53.8762 115.739 53.062 116.072 52.4773 116.738C51.8925 117.395 51.6001 118.263 51.6001 119.342V132H46.027V119.072C46.027 118.056 45.7346 117.246 45.1499 116.643C44.5741 116.041 43.8139 115.739 42.8693 115.739C42.2306 115.739 41.6548 115.901 41.142 116.225C40.6383 116.54 40.2379 116.985 39.9411 117.561C39.6442 118.128 39.4957 118.794 39.4957 119.558V132H33.7472ZM74.3178 132.391C72.9954 132.391 71.8169 132.162 70.7823 131.703C69.7478 131.235 68.9291 130.547 68.3263 129.638C67.7326 128.721 67.4357 127.578 67.4357 126.211C67.4357 125.059 67.6471 124.092 68.07 123.31C68.4928 122.527 69.0685 121.897 69.7972 121.42C70.5259 120.944 71.3536 120.584 72.2802 120.341C73.2158 120.098 74.1964 119.927 75.2219 119.828C76.4274 119.702 77.399 119.585 78.1367 119.477C78.8744 119.36 79.4097 119.189 79.7425 118.964C80.0754 118.74 80.2418 118.407 80.2418 117.966V117.885C80.2418 117.03 79.9719 116.369 79.4322 115.901C78.9014 115.433 78.1457 115.2 77.1651 115.2C76.1306 115.2 75.3074 115.429 74.6957 115.888C74.0839 116.338 73.6791 116.904 73.4812 117.588L68.1644 117.156C68.4343 115.897 68.9651 114.808 69.7567 113.891C70.5484 112.964 71.5695 112.253 72.82 111.759C74.0794 111.255 75.5368 111.003 77.1921 111.003C78.3436 111.003 79.4457 111.138 80.4982 111.408C81.5598 111.678 82.4999 112.096 83.3185 112.663C84.1462 113.229 84.7984 113.958 85.2752 114.849C85.752 115.73 85.9904 116.787 85.9904 118.02V132H80.5387V129.126H80.3768C80.0439 129.773 79.5986 130.345 79.0408 130.839C78.4831 131.325 77.8129 131.708 77.0302 131.987C76.2475 132.256 75.3434 132.391 74.3178 132.391ZM75.9641 128.424C76.8098 128.424 77.5565 128.258 78.2042 127.925C78.8519 127.583 79.3602 127.124 79.729 126.548C80.0979 125.973 80.2823 125.32 80.2823 124.592V122.392C80.1024 122.509 79.855 122.617 79.5401 122.716C79.2343 122.806 78.8879 122.891 78.5011 122.972C78.1142 123.044 77.7274 123.112 77.3406 123.175C76.9537 123.229 76.6029 123.278 76.288 123.323C75.6133 123.422 75.024 123.58 74.5202 123.795C74.0165 124.011 73.6251 124.304 73.3462 124.673C73.0674 125.032 72.9279 125.482 72.9279 126.022C72.9279 126.805 73.2113 127.403 73.7781 127.817C74.3538 128.222 75.0825 128.424 75.9641 128.424ZM90.4503 132V111.273H96.0234V114.889H96.2393C96.6172 113.603 97.2514 112.631 98.142 111.974C99.0327 111.309 100.058 110.976 101.219 110.976C101.507 110.976 101.817 110.994 102.15 111.03C102.483 111.066 102.775 111.115 103.027 111.178V116.279C102.757 116.198 102.384 116.126 101.907 116.063C101.43 116 100.994 115.969 100.598 115.969C99.7524 115.969 98.9967 116.153 98.331 116.522C97.6742 116.882 97.1525 117.386 96.7656 118.033C96.3878 118.681 96.1989 119.428 96.1989 120.273V132H90.4503ZM118.063 111.273V115.591H105.581V111.273H118.063ZM108.415 106.307H114.163V125.631C114.163 126.161 114.244 126.575 114.406 126.872C114.568 127.16 114.793 127.362 115.081 127.479C115.378 127.596 115.72 127.655 116.106 127.655C116.376 127.655 116.646 127.632 116.916 127.587C117.186 127.533 117.393 127.493 117.537 127.466L118.441 131.744C118.153 131.834 117.748 131.937 117.226 132.054C116.705 132.18 116.07 132.256 115.324 132.283C113.938 132.337 112.724 132.153 111.68 131.73C110.646 131.307 109.84 130.651 109.265 129.76C108.689 128.869 108.406 127.745 108.415 126.386V106.307ZM181.441 123.175V111.273H187.19V132H181.671V128.235H181.455C180.987 129.45 180.209 130.426 179.12 131.163C178.041 131.901 176.723 132.27 175.167 132.27C173.781 132.27 172.562 131.955 171.51 131.325C170.457 130.696 169.634 129.8 169.04 128.64C168.455 127.479 168.158 126.089 168.15 124.47V111.273H173.898V123.445C173.907 124.668 174.235 125.635 174.883 126.346C175.531 127.057 176.399 127.412 177.488 127.412C178.18 127.412 178.828 127.254 179.431 126.94C180.033 126.616 180.519 126.139 180.888 125.509C181.266 124.879 181.45 124.101 181.441 123.175ZM201.234 132.405C199.102 132.405 197.267 131.973 195.729 131.109C194.199 130.237 193.021 129.004 192.193 127.412C191.365 125.811 190.952 123.917 190.952 121.731C190.952 119.599 191.365 117.728 192.193 116.117C193.021 114.507 194.186 113.252 195.688 112.352C197.199 111.453 198.972 111.003 201.005 111.003C202.372 111.003 203.645 111.223 204.824 111.664C206.011 112.096 207.046 112.748 207.927 113.621C208.818 114.493 209.511 115.591 210.006 116.913C210.5 118.227 210.748 119.765 210.748 121.528V123.107H193.246V119.545H205.336C205.336 118.717 205.157 117.984 204.797 117.345C204.437 116.706 203.938 116.207 203.299 115.847C202.669 115.478 201.936 115.294 201.099 115.294C200.227 115.294 199.453 115.496 198.778 115.901C198.113 116.297 197.591 116.832 197.213 117.507C196.835 118.173 196.642 118.915 196.633 119.734V123.121C196.633 124.146 196.822 125.032 197.199 125.779C197.586 126.526 198.131 127.102 198.832 127.506C199.534 127.911 200.366 128.114 201.329 128.114C201.967 128.114 202.552 128.024 203.083 127.844C203.614 127.664 204.068 127.394 204.446 127.034C204.824 126.674 205.112 126.233 205.309 125.712L210.626 126.062C210.356 127.34 209.803 128.455 208.966 129.409C208.139 130.354 207.068 131.091 205.755 131.622C204.45 132.144 202.943 132.405 201.234 132.405ZM227.791 123.175V111.273H233.54V132H228.02V128.235H227.805C227.337 129.45 226.559 130.426 225.47 131.163C224.39 131.901 223.073 132.27 221.516 132.27C220.131 132.27 218.912 131.955 217.859 131.325C216.807 130.696 215.983 129.8 215.39 128.64C214.805 127.479 214.508 126.089 214.499 124.47V111.273H220.248V123.445C220.257 124.668 220.585 125.635 221.233 126.346C221.881 127.057 222.749 127.412 223.837 127.412C224.53 127.412 225.178 127.254 225.78 126.94C226.383 126.616 226.869 126.139 227.238 125.509C227.616 124.879 227.8 124.101 227.791 123.175ZM247.584 132.405C245.452 132.405 243.616 131.973 242.078 131.109C240.549 130.237 239.37 129.004 238.543 127.412C237.715 125.811 237.301 123.917 237.301 121.731C237.301 119.599 237.715 117.728 238.543 116.117C239.37 114.507 240.535 113.252 242.038 112.352C243.549 111.453 245.321 111.003 247.354 111.003C248.722 111.003 249.995 111.223 251.173 111.664C252.361 112.096 253.395 112.748 254.277 113.621C255.168 114.493 255.86 115.591 256.355 116.913C256.85 118.227 257.097 119.765 257.097 121.528V123.107H239.595V119.545H251.686C251.686 118.717 251.506 117.984 251.146 117.345C250.786 116.706 250.287 116.207 249.648 115.847C249.019 115.478 248.286 115.294 247.449 115.294C246.576 115.294 245.803 115.496 245.128 115.901C244.462 116.297 243.94 116.832 243.562 117.507C243.185 118.173 242.991 118.915 242.982 119.734V123.121C242.982 124.146 243.171 125.032 243.549 125.779C243.936 126.526 244.48 127.102 245.182 127.506C245.884 127.911 246.716 128.114 247.678 128.114C248.317 128.114 248.902 128.024 249.433 127.844C249.963 127.664 250.418 127.394 250.795 127.034C251.173 126.674 251.461 126.233 251.659 125.712L256.976 126.062C256.706 127.34 256.153 128.455 255.316 129.409C254.488 130.354 253.418 131.091 252.104 131.622C250.8 132.144 249.293 132.405 247.584 132.405Z" fill="white"/>
<path d="M144.519 119.864H150.792L153.945 123.92L157.047 127.534L162.894 134.864H156.007L151.985 129.92L149.922 126.989L144.519 119.864ZM163.422 114.545C163.422 118.352 162.701 121.591 161.257 124.261C159.826 126.932 157.871 128.972 155.394 130.381C152.928 131.778 150.155 132.477 147.076 132.477C143.973 132.477 141.189 131.773 138.723 130.364C136.257 128.955 134.309 126.915 132.877 124.244C131.445 121.574 130.729 118.341 130.729 114.545C130.729 110.739 131.445 107.5 132.877 104.83C134.309 102.159 136.257 100.125 138.723 98.7273C141.189 97.3182 143.973 96.6136 147.076 96.6136C150.155 96.6136 152.928 97.3182 155.394 98.7273C157.871 100.125 159.826 102.159 161.257 104.83C162.701 107.5 163.422 110.739 163.422 114.545ZM155.939 114.545C155.939 112.08 155.57 110 154.831 108.307C154.104 106.614 153.076 105.33 151.746 104.455C150.417 103.58 148.86 103.142 147.076 103.142C145.292 103.142 143.735 103.58 142.405 104.455C141.076 105.33 140.042 106.614 139.303 108.307C138.576 110 138.212 112.08 138.212 114.545C138.212 117.011 138.576 119.091 139.303 120.784C140.042 122.477 141.076 123.761 142.405 124.636C143.735 125.511 145.292 125.949 147.076 125.949C148.86 125.949 150.417 125.511 151.746 124.636C153.076 123.761 154.104 122.477 154.831 120.784C155.57 119.091 155.939 117.011 155.939 114.545Z" fill="url(#paint2_linear_115_109)"/>
<defs>
<linearGradient id="paint0_linear_115_109" x1="5.28571" y1="77.0233" x2="91.9718" y2="77.5238" gradientUnits="userSpaceOnUse">
<stop stop-color="#FF0000"/>
<stop offset="1" stop-color="#600000"/>
</linearGradient>
<linearGradient id="paint1_linear_115_109" x1="130" y1="98.5" x2="129.5" y2="144" gradientUnits="userSpaceOnUse">
<stop stop-color="#FFE600"/>
<stop offset="1" stop-color="#FF6B00"/>
</linearGradient>
<linearGradient id="paint2_linear_115_109" x1="130" y1="93.5" x2="129.5" y2="144" gradientUnits="userSpaceOnUse">
<stop stop-color="#FFE500"/>
<stop offset="1" stop-color="#FF6B00"/>
</linearGradient>
</defs>
</svg>
